<svg width="335" height="336" viewBox="0 0 335 336" fill="none" xmlns="http://www.w3.org/2000/svg">
<ellipse cx="167.5" cy="168" rx="167.5" ry="168" fill="#2E2F33"/>
<path d="M198.746 84.5C213.434 84.5002 225.352 96.4039 225.353 111.1C225.353 125.795 213.435 137.7 198.746 137.7C197.901 137.7 197.064 137.658 196.239 137.581C200.539 143.096 201.828 150.581 199.329 157.35H203.448V157.352C211.183 157.283 218.223 161.781 221.417 168.808L244.73 215.6L244.685 215.624C249.135 225.22 245.148 236.669 235.616 241.396C225.943 246.194 214.206 242.26 209.385 232.594V232.595L191.305 196.45H188.846C188.919 197.569 188.957 198.698 188.957 199.836V199.981C188.779 215.26 181.776 229.654 169.871 239.229C169.853 239.243 169.835 239.259 169.816 239.273C169.807 239.281 169.798 239.289 169.788 239.297L169.787 239.296C160.883 246.521 149.77 250.478 138.3 250.5H138.275C110.287 250.5 87.5686 227.856 87.5 199.866V199.805C87.5288 188.283 91.53 177.128 98.8242 168.213H98.8232C101.116 165.367 103.705 162.772 106.547 160.474C106.557 160.465 106.568 160.457 106.578 160.448C106.601 160.43 106.623 160.412 106.646 160.394C109.636 157.949 112.878 155.876 116.302 154.197C115.409 153.751 114.546 153.226 113.726 152.616V152.615C106.102 146.946 104.52 136.171 110.19 128.549L110.736 127.815L111.383 127.169L130.191 108.369L130.237 108.322L130.284 108.276C136.202 102.485 145.402 101.733 152.179 106.475L174.444 121.945C172.963 118.633 172.14 114.963 172.14 111.1C172.14 96.4038 184.058 84.5 198.746 84.5ZM144.803 191.533C141.564 189.059 137.066 189.059 133.825 191.534L133.184 192.024L132.483 192.429C131.925 192.751 131.46 193.214 131.139 193.771L130.964 194.074L130.772 194.366C128.044 198.536 129.212 204.128 133.387 206.857C136.393 208.823 140.279 208.823 143.285 206.857L143.295 206.851C144.546 206.034 145.681 205.053 146.674 203.936C149.487 199.991 148.686 194.5 144.804 191.534L144.803 191.533ZM137.939 149.082C138.041 149.081 138.143 149.078 138.244 149.078H138.307C138.763 149.079 139.218 149.087 139.671 149.1L142.104 144.991L137.939 149.082Z" fill="#0075E3" stroke="#9FA1B4" stroke-width="25"/>
<path fill-rule="evenodd" clip-rule="evenodd" d="M176.457 199.836C176.323 211.406 171.009 222.306 161.975 229.54C155.281 234.996 146.913 237.983 138.276 238C117.173 238 100.052 220.929 100 199.836C100.022 191.159 103.045 182.757 108.558 176.054C110.315 173.873 112.301 171.888 114.483 170.132C121.189 164.622 129.595 161.6 138.276 161.578C159.378 161.63 176.457 178.743 176.457 199.836ZM152.391 181.6C161.841 188.818 163.648 202.328 156.426 211.774C154.603 213.915 152.481 215.783 150.125 217.32C142.964 222.002 133.708 222.002 126.547 217.32C116.593 210.812 113.803 197.471 120.313 187.522C121.733 185.062 123.777 183.019 126.238 181.6C133.958 175.703 144.672 175.703 152.391 181.6Z" fill="#0075E3"/>
<path d="M126.52 142.778L142.884 126.704L160.282 138.83L153.323 150.58C163.43 153.721 172.326 159.89 178.808 168.252L187.084 154.152C189.243 150.243 187.823 145.325 183.912 143.168L183.887 143.154L178.056 139.676L145.047 116.74C143.191 115.418 140.656 115.617 139.028 117.21L120.219 136.01C118.67 138.093 119.102 141.037 121.186 142.586C122.752 143.751 124.875 143.827 126.52 142.778Z" fill="#87BEF1"/>
<path fill-rule="evenodd" clip-rule="evenodd" d="M198.746 125.2C206.536 125.2 212.852 118.887 212.852 111.1C212.852 103.313 206.536 97 198.746 97C190.955 97 184.639 103.313 184.639 111.1C184.639 118.887 190.955 125.2 198.746 125.2Z" fill="#0075E3"/>
<path d="M233.542 221.174L210.125 174.174C209.002 171.496 206.352 169.779 203.448 169.85H180.031C183.128 174.153 185.538 178.91 187.178 183.95H199.028L220.564 227.002C222.304 230.506 226.556 231.937 230.062 230.198C233.568 228.459 235 224.208 233.26 220.704L233.542 221.174Z" fill="#87BEF1"/>
<path d="M133.782 111.85C137.984 107.738 144.517 107.208 149.325 110.581H149.326L149.375 110.614C149.383 110.62 149.391 110.625 149.398 110.631H149.397L182.129 133.373L187.671 136.679C195.105 140.876 197.786 150.287 193.649 157.777L193.603 157.863L193.553 157.948L190.97 162.35H203.448V162.352C209.252 162.283 214.537 165.669 216.902 170.958L240.255 217.829L240.206 217.855C243.425 224.974 240.45 233.417 233.395 236.917C226.181 240.495 217.428 237.553 213.846 230.337V230.336L194.394 191.45H183.188C183.691 194.169 183.957 196.971 183.957 199.836V199.923C183.796 213.739 177.45 226.756 166.663 235.395L166.662 235.394C158.642 241.911 148.627 245.48 138.29 245.5H138.275C113.042 245.5 92.5619 225.085 92.5 199.854V199.817C92.5259 189.433 96.1359 179.379 102.718 171.349H102.717C104.811 168.749 107.179 166.382 109.78 164.289C117.814 157.711 127.871 154.104 138.257 154.078H138.294C139.684 154.082 141.059 154.15 142.417 154.274L146.869 146.758L150.278 141L143.7 136.415L131.776 148.129L131.215 148.68L130.552 149.103C126.282 151.824 120.774 151.627 116.71 148.604V148.604C111.302 144.582 110.18 136.94 114.202 131.533L114.529 131.093L114.917 130.705L133.726 111.905L133.754 111.878L133.782 111.85ZM147.838 187.56C142.807 183.717 135.823 183.717 130.791 187.561L130.405 187.854L129.985 188.097C128.666 188.858 127.57 189.953 126.809 191.271L126.704 191.453L126.589 191.629C122.348 198.11 124.164 206.802 130.65 211.043C135.318 214.095 141.353 214.095 146.021 211.043L146.027 211.038C147.73 209.927 149.267 208.581 150.598 207.044C155.149 200.899 153.938 192.22 147.838 187.561V187.56ZM198.746 89.5C210.675 89.5002 220.352 99.1675 220.353 111.1C220.353 123.032 210.675 132.7 198.746 132.7C186.817 132.7 177.14 123.032 177.14 111.1C177.14 99.1674 186.817 89.5 198.746 89.5Z" stroke="black" stroke-width="15"/>
<path fill-rule="evenodd" clip-rule="evenodd" d="M176.457 199.836C176.323 211.406 171.009 222.306 161.975 229.54C155.281 234.996 146.913 237.983 138.276 238C117.173 238 100.052 220.929 100 199.836C100.022 191.159 103.045 182.757 108.558 176.054C110.315 173.873 112.301 171.888 114.483 170.132C121.189 164.622 129.595 161.6 138.276 161.578C159.378 161.63 176.457 178.743 176.457 199.836ZM152.391 181.6C161.841 188.818 163.648 202.328 156.426 211.774C154.603 213.915 152.481 215.783 150.125 217.32C142.964 222.002 133.708 222.002 126.547 217.32C116.593 210.812 113.803 197.471 120.313 187.522C121.733 185.062 123.777 183.019 126.238 181.6C133.958 175.703 144.672 175.703 152.391 181.6Z" fill="#0075E3"/>
<path d="M233.542 221.174L210.125 174.174C209.002 171.496 206.352 169.779 203.448 169.85H180.031C183.128 174.153 185.538 178.91 187.178 183.95H199.028L220.564 227.002C222.304 230.506 226.556 231.937 230.062 230.198C233.568 228.459 235 224.208 233.26 220.704L233.542 221.174Z" fill="#3798F3"/>
<path d="M126.52 142.778L142.884 126.704L160.282 138.83L153.323 150.58C163.43 153.721 172.326 159.89 178.808 168.252L187.084 154.152C189.243 150.243 187.823 145.325 183.912 143.168L183.887 143.154L178.056 139.676L145.047 116.74C143.191 115.418 140.656 115.617 139.028 117.21L120.219 136.01C118.67 138.093 119.102 141.037 121.186 142.586C122.752 143.751 124.875 143.827 126.52 142.778Z" fill="#3798F3"/>
<path d="M212.852 111.1C212.852 118.887 206.536 125.2 198.746 125.2C190.955 125.2 184.639 118.887 184.639 111.1C184.639 103.313 190.955 97 198.746 97C206.536 97 212.852 103.313 212.852 111.1Z" fill="#3798F3"/>
<circle cx="139.5" cy="199.5" r="8.5" fill="#2E2F33"/>
</svg>
