<svg width="25" height="35" viewBox="0 0 25 35" fill="none" xmlns="http://www.w3.org/2000/svg">
<ellipse cx="12.5" cy="31.5" rx="12" ry="3" fill="url(#paint0_radial_24_10)"/>
<mask id="path-2-outside-1_24_10" maskUnits="userSpaceOnUse" x="-0.5" y="-0.5" width="26" height="32" fill="black">
<rect fill="white" x="-0.5" y="-0.5" width="26" height="32"/>
<path d="M12.5 0.5C19.1274 0.5 24.5 5.87258 24.5 12.5C24.5 21.7665 15.154 29.0859 12.958 30.6777C12.6834 30.8768 12.3252 30.8683 12.0605 30.6562C9.89907 28.924 0.5 20.9077 0.5 12.5C0.5 5.8726 5.8726 0.500022 12.5 0.5ZM12.5 8.5C10.2909 8.50002 8.5 10.2909 8.5 12.5C8.5 14.7091 10.2909 16.5 12.5 16.5C14.7091 16.5 16.5 14.7091 16.5 12.5C16.5 10.2909 14.7091 8.5 12.5 8.5Z"/>
</mask>
<path d="M12.5 0.5C19.1274 0.5 24.5 5.87258 24.5 12.5C24.5 21.7665 15.154 29.0859 12.958 30.6777C12.6834 30.8768 12.3252 30.8683 12.0605 30.6562C9.89907 28.924 0.5 20.9077 0.5 12.5C0.5 5.8726 5.8726 0.500022 12.5 0.5ZM12.5 8.5C10.2909 8.50002 8.5 10.2909 8.5 12.5C8.5 14.7091 10.2909 16.5 12.5 16.5C14.7091 16.5 16.5 14.7091 16.5 12.5C16.5 10.2909 14.7091 8.5 12.5 8.5Z" class="Colored" fill="#E00000"/>
<path d="M12.5 0.5V0H12.5L12.5 0.5ZM12.958 30.6777L13.2515 31.0826L13.2515 31.0826L12.958 30.6777ZM12.0605 30.6562L11.7479 31.0464L11.7479 31.0465L12.0605 30.6562ZM12.5 8.5V8H12.5L12.5 8.5ZM12.5 16.5L12.5 17H12.5V16.5ZM12.5 0.5V1C18.8513 1 24 6.14873 24 12.5H24.5H25C25 5.59644 19.4036 0 12.5 0V0.5ZM24.5 12.5H24C24 16.9667 21.7441 21.0026 19.1657 24.15C16.5927 27.2907 13.745 29.4897 12.6645 30.2729L12.958 30.6777L13.2515 31.0826C14.367 30.2739 17.2903 28.0172 19.9393 24.7837C22.5829 21.5568 25 17.2998 25 12.5H24.5ZM12.958 30.6777L12.6646 30.2729C12.5721 30.3399 12.462 30.3372 12.3731 30.266L12.0605 30.6562L11.7479 31.0465C12.1884 31.3993 12.7947 31.4136 13.2515 31.0826L12.958 30.6777ZM12.0605 30.6562L12.3732 30.2661C11.3062 29.4109 8.44754 27 5.86 23.7688C3.26129 20.5238 1 16.5303 1 12.5H0.5H0C0 16.8774 2.43824 21.0958 5.07944 24.3939C7.7318 27.706 10.6534 30.1693 11.7479 31.0464L12.0605 30.6562ZM0.5 12.5H1C1 6.14874 6.14874 1.00002 12.5 1L12.5 0.5L12.5 0C5.59646 2.2918e-05 0 5.59645 0 12.5H0.5ZM12.5 8.5L12.5 8C10.0147 8.00002 8 10.0147 8 12.5H8.5H9C9 10.567 10.567 9.00002 12.5 9L12.5 8.5ZM8.5 12.5H8C8 14.9853 10.0147 17 12.5 17L12.5 16.5L12.5 16C10.567 16 9 14.433 9 12.5H8.5ZM12.5 16.5V17C14.9853 17 17 14.9853 17 12.5H16.5H16C16 14.433 14.433 16 12.5 16V16.5ZM16.5 12.5H17C17 10.0147 14.9853 8 12.5 8V8.5V9C14.433 9 16 10.567 16 12.5H16.5Z" fill="white" mask="url(#path-2-outside-1_24_10)"/>
<defs>
<radialGradient id="paint0_radial_24_10" cx="0" cy="0" r="1" gradientUnits="userSpaceOnUse" gradientTransform="translate(12.5 31.5) scale(9 2.25)">
<stop offset="0.230769" stop-color="#848484"/>
<stop offset="1" stop-color="#848484" stop-opacity="0"/>
</radialGradient>
</defs>
</svg>
