<svg width="157" height="259" viewBox="0 0 157 259" fill="none" xmlns="http://www.w3.org/2000/svg">
<path d="M45.1543 112.317C48.3095 108.256 55.7966 108.21 58.9651 112.261C59.1199 112.458 59.2767 112.655 59.4355 112.849C63.4539 117.768 69.954 122.857 79.0361 122.662H79.0371C87.9636 122.469 94.2164 117.273 98.0615 112.328C101.221 108.264 108.717 108.218 111.89 112.271C112.037 112.459 112.187 112.646 112.338 112.832C116.355 117.756 122.859 122.857 131.951 122.662H131.952C140.886 122.469 147.141 117.266 150.986 112.317C152.595 110.246 155.891 110.481 156.409 113.052C156.797 114.974 157 116.963 157 119V229C157 245.309 143.985 258.579 127.774 258.99L127 259H30L29.2256 258.99C13.2723 258.586 0.413998 245.727 0.00976562 229.774L0 229V119C2.77468e-05 117.203 0.158208 115.443 0.461215 113.734C0.973446 110.844 4.64945 110.558 6.50488 112.833C10.5227 117.757 17.0274 122.857 26.1201 122.662C35.0535 122.469 41.3095 117.266 45.1543 112.317ZM33.5557 107.292C33.4161 107.421 33.2759 107.548 33.1338 107.671C33.2759 107.548 33.4163 107.422 33.5557 107.292ZM139.388 107.292C139.248 107.421 139.108 107.548 138.966 107.671C139.108 107.548 139.248 107.422 139.388 107.292ZM34.1338 106.732L33.876 106.99C33.9881 106.88 34.0988 106.768 34.209 106.654C34.1838 106.68 34.1591 106.706 34.1338 106.732ZM139.966 106.732L139.708 106.99C139.82 106.88 139.931 106.768 140.041 106.654C140.016 106.68 139.991 106.706 139.966 106.732ZM34.5176 106.326C34.4284 106.422 34.3385 106.518 34.248 106.612C34.3385 106.518 34.4284 106.422 34.5176 106.326ZM140.35 106.326C140.26 106.422 140.171 106.518 140.08 106.612C140.171 106.518 140.26 106.422 140.35 106.326ZM34.8408 105.966C34.7537 106.066 34.6656 106.163 34.5771 106.26C34.6656 106.163 34.7536 106.066 34.8408 105.966ZM140.673 105.966C140.586 106.066 140.498 106.163 140.409 106.26C140.498 106.163 140.586 106.066 140.673 105.966ZM35.2002 105.548C35.0988 105.67 34.9957 105.789 34.8926 105.908C34.9957 105.789 35.0988 105.67 35.2002 105.548ZM141.032 105.548C140.931 105.67 140.828 105.789 140.725 105.908C140.828 105.789 140.931 105.67 141.032 105.548ZM88.7061 104.803C88.6716 104.848 88.6372 104.893 88.6025 104.938C88.6372 104.893 88.6716 104.848 88.7061 104.803ZM89.1436 104.214C89.1077 104.264 89.0712 104.313 89.0352 104.363C89.0712 104.313 89.1077 104.264 89.1436 104.214Z" fill="#484848"/>
<path fill-rule="evenodd" clip-rule="evenodd" d="M36.7051 15.5183C42.2277 15.5184 46.7049 19.9957 46.7051 25.5183V75.0485C46.7051 75.0485 42.7798 110.322 26.8613 110.665C10.7456 111.012 6 75.0485 6 75.0485V25.5183C6.00018 19.9956 10.4773 15.5183 16 15.5183H36.7051ZM20.7559 57.7497V68.4343H31.4404V57.7497H20.7559Z" fill="#A3824D"/>
<path fill-rule="evenodd" clip-rule="evenodd" d="M142.537 15.5183C148.06 15.5183 152.537 19.9956 152.537 25.5183V75.0485C152.537 75.0485 148.612 110.322 132.693 110.665C116.578 111.011 111.833 75.0485 111.833 75.0485V25.5183C111.833 19.9956 116.31 15.5183 121.833 15.5183H142.537ZM126.588 57.7497V68.4343H137.273V57.7497H126.588Z" fill="#A3824D"/>
<path fill-rule="evenodd" clip-rule="evenodd" d="M89.6216 0C95.1442 0.000241496 99.6216 4.4773 99.6216 10V75.0488C99.6159 75.0999 95.6847 110.322 79.7778 110.665C63.68 111.012 58.927 75.1283 58.9165 75.0488V10C58.9165 4.47715 63.3937 0 68.9165 0H89.6216ZM73.6714 57.749V68.4346H84.3569V57.749H73.6714Z" fill="#A3824D"/>
<path d="M41.7186 204.875V138H31.6876C27.9961 138 25 140.996 25 144.688V238.316C25 242.007 27.9961 245 31.6876 245H48.4062C52.0977 245 55.0938 242.007 55.0938 238.316V208.219H45.0624C43.2168 208.219 41.7186 206.724 41.7186 204.875ZM81.8438 204.875V138H75.1562V204.875C75.1562 206.724 73.6614 208.219 71.8124 208.219H61.781V238.315C61.781 242.007 64.7771 245 68.4686 245H88.531C92.2225 245 95.2186 242.007 95.2186 238.315V208.219H85.1872C83.3382 208.219 81.8438 206.724 81.8438 204.875ZM125.312 138H115.281V204.875C115.281 206.724 113.786 208.219 111.937 208.219H101.906V238.315C101.906 242.007 104.902 245 108.594 245H125.312C129.004 245 132 242.007 132 238.315V144.688C132 140.996 129.004 138 125.312 138Z" fill="#EBEBEB"/>
<path d="M88.5311 128.003V188.188C88.5311 190.037 90.0259 191.531 91.8749 191.531H105.25C107.099 191.531 108.593 190.037 108.593 188.188V128.003H88.5311ZM48.4062 188.187C48.4062 190.036 49.9041 191.531 51.75 191.531H65.1249C66.9704 191.531 68.4687 190.036 68.4687 188.187V128.003H48.4062V188.187Z" fill="#484848"/>
</svg>
