<svg width="147" height="147" viewBox="0 0 147 147" fill="none" xmlns="http://www.w3.org/2000/svg">
<g clip-path="url(#clip0_14_2)">
<path fill-rule="evenodd" clip-rule="evenodd" d="M30.7051 33.4546C36.2277 33.4547 40.7049 37.9319 40.7051 43.4546V92.9848C40.7051 92.9848 36.7798 128.258 20.8613 128.601C4.74562 128.948 0 92.9848 0 92.9848V43.4546C0.000181816 37.9319 4.47726 33.4546 10 33.4546H30.7051ZM14.7559 75.686V86.3706H25.4404V75.686H14.7559Z" fill="#A3824D"/>
<path fill-rule="evenodd" clip-rule="evenodd" d="M136.537 33.4546C142.06 33.4546 146.537 37.9319 146.537 43.4546V92.9848C146.537 92.9848 142.612 128.258 126.693 128.601C110.578 128.948 105.833 92.9848 105.833 92.9848V43.4546C105.833 37.9319 110.31 33.4546 115.833 33.4546H136.537ZM120.588 75.686V86.3706H131.273V75.686H120.588Z" fill="#A3824D"/>
<path fill-rule="evenodd" clip-rule="evenodd" d="M83.6216 17.9363C89.1442 17.9365 93.6216 22.4136 93.6216 27.9363V92.9851C93.6159 93.0362 89.6847 128.258 73.7778 128.601C57.68 128.948 52.927 93.0645 52.9165 92.9851V27.9363C52.9165 22.4134 57.3937 17.9363 62.9165 17.9363H83.6216ZM67.6714 75.6853V86.3708H78.3569V75.6853H67.6714Z" fill="#A3824D"/>
</g>
<defs>
<clipPath id="clip0_14_2">
<rect width="146.537" height="146.54" fill="white"/>
</clipPath>
</defs>
</svg>
