<svg width="1080" height="1080" viewBox="0 0 1080 1080" fill="none" xmlns="http://www.w3.org/2000/svg">
<mask id="mask0_1_2" style="mask-type:luminance" maskUnits="userSpaceOnUse" x="212" y="212" width="656" height="656">
<path d="M867.37 212H212V867.37H867.37V212Z" fill="white"/>
</mask>
<g mask="url(#mask0_1_2)">
<path fill-rule="evenodd" clip-rule="evenodd" d="M286.056 361.067C286.411 361.586 313.199 369.669 345.667 378.926H345.803L405.469 396.102C406.398 396.184 372.701 277.999 371.39 276.606C370.271 275.459 253.151 241.899 252.441 242.582C252.004 243.073 284.963 359.374 286.056 361.067ZM252.468 520.267C254.789 531.845 285.646 636.35 287.011 637.415L287.039 637.442C288.049 638.234 289.141 638.916 289.578 638.916L290.261 638.288C302.822 626.301 315.192 614.122 327.59 601.588C348.206 580.971 366.939 562.812 369.233 561.201C372.947 558.634 373.411 557.787 372.646 555.111C371.827 552.08 369.888 551.397 311.888 534.904C256.455 519.093 252.031 518.001 252.468 520.267ZM482.475 248.098C481.492 248.48 459.892 254.761 434.36 261.997L388.075 275.186L390.205 282.832L404.404 332.149V332.203C415.082 369.478 418.222 378.161 418.222 370.16L418.331 369.45C419.232 364.18 420.488 359.019 421.826 354.841L422.209 353.175C432.207 317.506 450.415 284.672 475.376 257.3C480.209 251.948 483.404 247.688 482.475 248.098ZM494.436 290.888L494.6 290.697L494.764 290.451L494.436 290.888ZM413.989 450.388L402.493 490.694C398.535 504.683 394.484 518.647 390.341 532.583L390.369 532.555C389.932 533.648 390.396 533.921 391.98 533.484C393.209 533.102 402.821 530.344 413.47 527.367C424.038 524.336 432.913 521.742 433.131 521.578C431.716 516.543 430.066 511.577 428.189 506.696C422.611 491.231 418.372 475.316 415.518 459.127L413.989 450.388ZM309.458 517.891C341.899 527.176 369.506 534.876 370.871 534.958C373.056 535.068 374.886 529.497 390.642 474.337C400.172 440.967 407.791 413.442 407.545 413.196C406.261 412.077 285.946 378.38 285.346 379.008C284.69 379.745 249.764 500.47 250.229 500.797C250.28 500.849 260.94 503.918 276.966 508.531C286.317 511.223 297.494 514.44 309.458 517.891Z" fill="#A1D581"/>
<path d="M814.939 612.374C814.584 611.364 812.072 612.62 807.703 616.033C776.764 639.435 737.469 656.611 700.85 662.81L696.59 663.575L697.792 667.835L697.846 668.08C698.283 669.855 698.829 671.548 699.403 672.941L699.375 672.996C699.703 673.569 821.274 639.49 822.175 638.561C822.367 638.316 816.414 616.88 814.939 612.374Z" fill="#A1D581"/>
<path d="M819.772 656.912C819.308 656.393 702.379 689.052 701.096 689.981C700.577 690.363 667.017 807.237 667.017 808.685C667.017 809.203 668.218 809.531 669.693 809.231C673.325 808.493 785.584 776.49 786.13 775.971C787.004 775.343 820.291 657.403 819.772 656.912Z" fill="#A1D581"/>
<path d="M469.75 787.604C491.268 781.514 509.236 776.135 509.782 775.698C510.847 774.633 544.49 657.321 543.862 656.639C543.616 656.366 541.158 656.803 538.346 657.567L533.376 658.96L533.075 667.343C532.939 671.985 532.202 678.375 531.492 681.597C529.662 689.325 523.272 703.361 518.575 709.314C516.527 712.072 495.938 733.235 472.809 756.501L472.836 756.555L430.81 798.663L469.75 787.604Z" fill="#A1D581"/>
<path d="M682.418 688.861C677.721 686.567 562.376 654.4 561.748 655.11C560.382 656.557 526.686 775.834 527.368 776.599L587.362 794.348C619.912 803.742 647.274 811.497 648.038 811.579C648.803 811.579 650.004 809.695 650.687 807.319L668.054 746.261C682.336 696.726 684.111 689.544 682.418 688.861Z" fill="#A1D581"/>
<path d="M865.92 392.635C856.69 332.15 824.468 280.758 774.933 247.498C684.765 186.822 562.703 205.636 494.571 290.67C464.97 327.656 448.873 373.634 448.941 421.007C448.941 437.2 450.771 452.984 453.993 466.719C458.936 488.565 469.886 514.971 481.491 533.048L487.444 542.414L439.766 590.038L432.202 586.215C425.594 582.829 423.491 582.392 415.244 582.392C397.495 582.337 402.574 578.05 304.132 676.574C206.7 774.115 212.052 767.807 212.052 785.42C211.943 801.258 213.882 804.235 244.384 834.627C269.998 860.132 274.968 864.092 284.607 866.522L284.635 866.549C291.598 868.324 303.067 867.068 310.467 863.655C316.256 861.006 327.889 849.865 403.366 774.606C501.289 676.793 497.111 681.817 497.029 664.04C497.029 655.821 496.619 653.773 493.206 647.192L489.383 639.546L537.061 591.922L546.428 597.875C582.964 621.305 630.724 633.21 673.733 629.633C703.962 627.094 726.272 620.895 752.514 607.706L753.606 607.241C773.028 597.791 790.636 584.999 805.626 569.448L805.653 569.421C838.589 537.208 859.804 494.905 865.92 449.243C867.859 435.753 867.859 405.36 865.92 392.635ZM815.457 497.112L814.993 498.15C802.851 522.577 785.207 543.853 763.448 560.305C741.69 576.757 716.41 587.935 689.598 592.96L689.626 593.014C675.317 595.609 647.081 596.155 633.155 594.025L632.199 593.916C591.236 587.623 553.826 567.026 526.603 535.779C498.807 504.075 483.508 463.334 483.567 421.171C483.567 383.132 495.773 347.933 516.144 319.78C524.582 307.847 544.434 287.994 556.613 279.338C576.781 265.089 599.666 255.143 623.843 250.119C640.391 246.597 673.952 246.242 689.844 249.437C712.755 254.024 737.113 263.964 754.562 275.706C827.909 324.886 853.496 417.921 815.457 497.112Z" fill="#272727"/>
<path d="M556.269 490.89L556.276 490.887H556.258L556.269 490.89Z" fill="#272727"/>
</g>
<mask id="mask1_1_2" style="mask-type:alpha" maskUnits="userSpaceOnUse" x="475" y="240" width="360" height="360">
<circle cx="655" cy="420" r="180" fill="#D9D9D9"/>
</mask>
<g mask="url(#mask1_1_2)">
<path d="M863 230H447V626H863V230Z" fill="white"/>
<path d="M721 231H710V627H721V231Z" fill="#D2D2D2"/>
<path d="M595 228H584V624H595V228Z" fill="#D2D2D2"/>
<path d="M625.861 240V455.643C625.861 457.791 625.341 459.81 624.559 461.567C624.429 461.763 624.299 462.023 624.234 462.219C624.169 462.284 624.103 462.414 624.038 462.479C623.973 462.609 623.908 462.74 623.778 462.87C623.778 462.935 623.713 463.001 623.713 463.066C623.648 463.131 623.583 463.261 623.517 463.326C623.322 463.587 623.126 463.847 622.931 464.107C622.866 464.237 622.736 464.368 622.606 464.498L622.541 464.563C622.411 464.693 622.28 464.823 622.215 464.954C622.085 465.084 621.955 465.215 621.759 465.345C621.303 465.735 620.913 466.061 620.457 466.387C620.327 466.517 620.196 466.582 620.001 466.713C619.871 466.778 619.741 466.843 619.61 466.908C619.285 467.103 618.895 467.298 618.504 467.428C618.374 467.493 618.178 467.558 618.048 467.624C617.723 467.754 617.397 467.884 617.006 467.95C616.941 467.95 616.876 467.95 616.811 468.015C616.681 468.015 616.55 468.015 616.42 468.08C616.225 468.08 616.03 468.145 615.9 468.145C615.835 468.145 615.835 468.145 615.77 468.145C615.64 468.145 615.444 468.21 615.314 468.21H566.612C566.417 468.21 566.222 468.145 566.092 468.145C566.027 468.145 566.027 468.145 565.962 468.145C565.832 468.145 565.636 468.08 565.506 468.08C565.441 468.08 565.441 468.08 565.441 468.08C565.311 468.015 565.181 468.015 565.05 468.015C564.985 467.95 564.92 467.95 564.855 467.95C564.529 467.885 564.138 467.754 563.813 467.624C563.682 467.559 563.487 467.494 563.357 467.428C562.967 467.298 562.641 467.103 562.251 466.908C562.121 466.843 561.99 466.778 561.86 466.713C561.73 466.583 561.534 466.517 561.405 466.387C560.949 466.126 560.558 465.735 560.167 465.345C559.972 465.215 559.842 465.085 559.712 464.954L559.321 464.563C559.321 464.563 559.321 464.498 559.256 464.498C559.126 464.368 559.061 464.238 558.93 464.107C558.734 463.847 558.539 463.587 558.344 463.326C558.279 463.261 558.214 463.131 558.149 463.066C558.149 463.001 558.084 462.936 558.084 462.87C558.019 462.74 557.889 462.61 557.824 462.479C557.759 462.414 557.693 462.285 557.693 462.219C557.563 462.023 557.433 461.763 557.367 461.567C556.521 459.809 556 457.791 556 455.643V240H625.861Z" fill="#484747"/>
<path d="M624.528 461.579C624.426 461.786 624.324 461.994 624.211 462.195C624.164 462.293 624.108 462.385 624.052 462.478C623.97 462.622 623.888 462.761 623.796 462.899C623.771 462.951 623.735 462.997 623.705 463.048C623.643 463.141 623.582 463.238 623.515 463.331C623.337 463.596 623.147 463.85 622.942 464.098C622.835 464.236 622.722 464.368 622.604 464.501C622.584 464.524 622.558 464.553 622.537 464.576C622.424 464.703 622.307 464.824 622.19 464.945C621.658 465.492 621.074 465.982 620.455 466.403C620.312 466.507 620.164 466.599 620.01 466.691C619.883 466.772 619.749 466.853 619.616 466.922C619.263 467.124 618.905 467.297 618.532 467.447C618.368 467.516 618.204 467.579 618.035 467.643C617.708 467.758 617.37 467.856 617.033 467.937C616.956 467.959 616.875 467.977 616.797 467.989C616.675 468.017 616.552 468.041 616.424 468.063C616.413 468.069 616.403 468.069 616.393 468.069C616.229 468.098 616.06 468.121 615.892 468.144C615.856 468.15 615.82 468.15 615.784 468.155C615.62 468.172 615.452 468.184 615.283 468.196C615.099 468.207 614.905 468.213 614.715 468.213H567.158C566.968 468.213 566.774 468.207 566.59 468.196C566.421 468.185 566.252 468.173 566.088 468.155C566.053 468.15 566.017 468.15 565.981 468.144C565.812 468.121 565.643 468.098 565.48 468.069C565.469 468.069 565.46 468.069 565.449 468.063C565.321 468.041 565.198 468.017 565.075 467.989C564.999 467.977 564.917 467.959 564.84 467.937C564.502 467.856 564.165 467.758 563.837 467.643C563.669 467.579 563.505 467.516 563.341 467.447C562.967 467.297 562.609 467.124 562.257 466.922C562.123 466.853 561.991 466.773 561.863 466.691C561.709 466.599 561.56 466.507 561.418 466.403C560.799 465.982 560.215 465.492 559.683 464.945C559.565 464.824 559.448 464.703 559.335 464.576C559.315 464.553 559.289 464.524 559.274 464.501C559.151 464.369 559.038 464.237 558.931 464.098C558.726 463.85 558.537 463.596 558.358 463.331C558.292 463.239 558.23 463.141 558.169 463.048C558.138 462.996 558.102 462.95 558.077 462.899C557.985 462.761 557.903 462.622 557.821 462.478C557.765 462.386 557.708 462.293 557.663 462.195C557.551 461.994 557.448 461.786 557.345 461.579L566.175 417.264C566.175 410.364 571.184 404.717 577.313 404.717H604.561C610.69 404.717 615.698 410.365 615.698 417.264L624.528 461.579Z" fill="#595A59"/>
<path d="M570.86 241.724H569.496V401.434H570.86V241.724Z" fill="#595A59"/>
<path d="M611.788 241.724H610.424V401.434H611.788V241.724Z" fill="#595A59"/>
<path d="M749.861 240V455.643C749.861 457.791 749.341 459.81 748.559 461.567C748.429 461.763 748.299 462.023 748.234 462.219C748.169 462.284 748.103 462.414 748.038 462.479C747.973 462.609 747.908 462.74 747.778 462.87C747.778 462.935 747.713 463.001 747.713 463.066C747.648 463.131 747.583 463.261 747.517 463.326C747.322 463.587 747.126 463.847 746.931 464.107C746.866 464.237 746.736 464.368 746.606 464.498L746.541 464.563C746.411 464.693 746.28 464.823 746.215 464.954C746.085 465.084 745.955 465.215 745.759 465.345C745.303 465.735 744.913 466.061 744.457 466.387C744.327 466.517 744.196 466.582 744.001 466.713C743.871 466.778 743.741 466.843 743.61 466.908C743.285 467.103 742.895 467.298 742.504 467.428C742.374 467.493 742.178 467.558 742.048 467.624C741.723 467.754 741.397 467.884 741.006 467.95C740.941 467.95 740.876 467.95 740.811 468.015C740.681 468.015 740.55 468.015 740.42 468.08C740.225 468.08 740.03 468.145 739.9 468.145C739.835 468.145 739.835 468.145 739.77 468.145C739.64 468.145 739.444 468.21 739.314 468.21H690.612C690.417 468.21 690.222 468.145 690.092 468.145C690.027 468.145 690.027 468.145 689.962 468.145C689.832 468.145 689.636 468.08 689.506 468.08C689.441 468.08 689.441 468.08 689.441 468.08C689.311 468.015 689.181 468.015 689.05 468.015C688.985 467.95 688.92 467.95 688.855 467.95C688.529 467.885 688.138 467.754 687.813 467.624C687.682 467.559 687.487 467.494 687.357 467.428C686.967 467.298 686.641 467.103 686.251 466.908C686.121 466.843 685.99 466.778 685.86 466.713C685.73 466.583 685.534 466.517 685.405 466.387C684.949 466.126 684.558 465.735 684.167 465.345C683.972 465.215 683.842 465.085 683.712 464.954L683.321 464.563C683.321 464.563 683.321 464.498 683.256 464.498C683.126 464.368 683.061 464.238 682.93 464.107C682.734 463.847 682.539 463.587 682.344 463.326C682.279 463.261 682.214 463.131 682.149 463.066C682.149 463.001 682.084 462.936 682.084 462.87C682.019 462.74 681.889 462.61 681.824 462.479C681.759 462.414 681.693 462.285 681.693 462.219C681.563 462.023 681.433 461.763 681.367 461.567C680.521 459.809 680 457.791 680 455.643V240H749.861Z" fill="#484747"/>
<path d="M748.528 461.579C748.426 461.786 748.324 461.994 748.211 462.195C748.164 462.293 748.108 462.385 748.052 462.478C747.97 462.622 747.888 462.761 747.796 462.899C747.771 462.951 747.735 462.997 747.705 463.048C747.643 463.141 747.582 463.238 747.515 463.331C747.337 463.596 747.147 463.85 746.942 464.098C746.835 464.236 746.722 464.368 746.604 464.501C746.584 464.524 746.558 464.553 746.537 464.576C746.424 464.703 746.307 464.824 746.19 464.945C745.658 465.492 745.074 465.982 744.455 466.403C744.312 466.507 744.164 466.599 744.01 466.691C743.883 466.772 743.749 466.853 743.616 466.922C743.263 467.124 742.905 467.297 742.532 467.447C742.368 467.516 742.204 467.579 742.035 467.643C741.708 467.758 741.37 467.856 741.033 467.937C740.956 467.959 740.875 467.977 740.797 467.989C740.675 468.017 740.552 468.041 740.424 468.063C740.413 468.069 740.403 468.069 740.393 468.069C740.229 468.098 740.06 468.121 739.892 468.144C739.856 468.15 739.82 468.15 739.784 468.155C739.62 468.172 739.452 468.184 739.283 468.196C739.099 468.207 738.905 468.213 738.715 468.213H691.158C690.968 468.213 690.774 468.207 690.59 468.196C690.421 468.185 690.252 468.173 690.088 468.155C690.053 468.15 690.017 468.15 689.981 468.144C689.812 468.121 689.643 468.098 689.48 468.069C689.469 468.069 689.46 468.069 689.449 468.063C689.321 468.041 689.198 468.017 689.075 467.989C688.999 467.977 688.917 467.959 688.84 467.937C688.502 467.856 688.165 467.758 687.837 467.643C687.669 467.579 687.505 467.516 687.341 467.447C686.967 467.297 686.609 467.124 686.257 466.922C686.123 466.853 685.991 466.773 685.863 466.691C685.709 466.599 685.56 466.507 685.418 466.403C684.799 465.982 684.215 465.492 683.683 464.945C683.565 464.824 683.448 464.703 683.335 464.576C683.315 464.553 683.289 464.524 683.274 464.501C683.151 464.369 683.038 464.237 682.931 464.098C682.726 463.85 682.537 463.596 682.358 463.331C682.292 463.239 682.23 463.141 682.169 463.048C682.138 462.996 682.102 462.95 682.077 462.899C681.985 462.761 681.903 462.622 681.821 462.478C681.765 462.386 681.708 462.293 681.663 462.195C681.551 461.994 681.448 461.786 681.345 461.579L690.175 417.264C690.175 410.364 695.184 404.717 701.313 404.717H728.561C734.69 404.717 739.698 410.365 739.698 417.264L748.528 461.579Z" fill="#595A59"/>
<path d="M694.86 241.724H693.496V401.434H694.86V241.724Z" fill="#595A59"/>
<path d="M735.788 241.724H734.424V401.434H735.788V241.724Z" fill="#595A59"/>
</g>
</svg>
