<svg width="4921" height="1080" viewBox="0 0 4921 1080" fill="none" xmlns="http://www.w3.org/2000/svg">
<mask id="mask0_11_132" style="mask-type:luminance" maskUnits="userSpaceOnUse" x="212" y="212" width="656" height="656">
<path d="M867.37 212H212V867.37H867.37V212Z" fill="white"/>
</mask>
<g mask="url(#mask0_11_132)">
<path fill-rule="evenodd" clip-rule="evenodd" d="M286.056 361.067C286.411 361.586 313.199 369.669 345.667 378.926H345.803L405.469 396.102C406.398 396.184 372.701 277.999 371.39 276.606C370.271 275.459 253.151 241.899 252.441 242.582C252.004 243.073 284.963 359.374 286.056 361.067ZM252.468 520.267C254.789 531.845 285.646 636.35 287.011 637.415L287.039 637.442C288.049 638.234 289.141 638.916 289.578 638.916L290.261 638.288C302.822 626.301 315.192 614.122 327.59 601.588C348.206 580.971 366.939 562.812 369.233 561.201C372.947 558.634 373.411 557.787 372.646 555.111C371.827 552.08 369.888 551.397 311.888 534.904C256.455 519.093 252.031 518.001 252.468 520.267ZM482.475 248.098C481.492 248.48 459.892 254.761 434.36 261.997L388.075 275.186L390.205 282.832L404.404 332.149V332.203C415.082 369.478 418.222 378.161 418.222 370.16L418.331 369.45C419.232 364.18 420.488 359.019 421.826 354.841L422.209 353.175C432.207 317.506 450.415 284.672 475.376 257.3C480.209 251.948 483.404 247.688 482.475 248.098ZM494.436 290.888L494.6 290.697L494.764 290.451L494.436 290.888ZM413.989 450.388L402.493 490.694C398.535 504.683 394.484 518.647 390.341 532.583L390.369 532.555C389.932 533.648 390.396 533.921 391.98 533.484C393.209 533.102 402.821 530.344 413.47 527.367C424.038 524.336 432.913 521.742 433.131 521.578C431.716 516.543 430.066 511.577 428.189 506.696C422.611 491.231 418.372 475.316 415.518 459.127L413.989 450.388ZM309.458 517.891C341.899 527.176 369.506 534.876 370.871 534.958C373.056 535.068 374.886 529.497 390.642 474.337C400.172 440.967 407.791 413.442 407.545 413.196C406.261 412.077 285.946 378.38 285.346 379.008C284.69 379.745 249.764 500.47 250.229 500.797C250.28 500.849 260.94 503.918 276.966 508.531C286.317 511.223 297.494 514.44 309.458 517.891Z" fill="#A1D581"/>
<path d="M814.939 612.374C814.584 611.364 812.072 612.62 807.703 616.033C776.764 639.435 737.469 656.611 700.85 662.81L696.59 663.575L697.792 667.835L697.846 668.08C698.283 669.855 698.829 671.548 699.403 672.941L699.375 672.996C699.703 673.569 821.274 639.49 822.175 638.561C822.367 638.316 816.414 616.88 814.939 612.374Z" fill="#A1D581"/>
<path d="M819.772 656.912C819.308 656.393 702.379 689.052 701.096 689.981C700.577 690.363 667.017 807.237 667.017 808.685C667.017 809.203 668.218 809.531 669.693 809.231C673.325 808.493 785.584 776.49 786.13 775.971C787.004 775.343 820.291 657.403 819.772 656.912Z" fill="#A1D581"/>
<path d="M469.75 787.604C491.268 781.514 509.236 776.135 509.782 775.698C510.847 774.633 544.49 657.321 543.862 656.639C543.616 656.366 541.158 656.803 538.346 657.567L533.376 658.96L533.075 667.343C532.939 671.985 532.202 678.375 531.492 681.597C529.662 689.325 523.272 703.361 518.575 709.314C516.527 712.072 495.938 733.235 472.809 756.501L472.836 756.555L430.81 798.663L469.75 787.604Z" fill="#A1D581"/>
<path d="M682.418 688.861C677.721 686.567 562.376 654.4 561.748 655.11C560.382 656.557 526.686 775.834 527.368 776.599L587.362 794.348C619.912 803.742 647.274 811.497 648.038 811.579C648.803 811.579 650.004 809.695 650.687 807.319L668.054 746.261C682.336 696.726 684.111 689.544 682.418 688.861Z" fill="#A1D581"/>
<path d="M865.92 392.635C856.69 332.15 824.468 280.758 774.933 247.498C684.765 186.822 562.703 205.636 494.571 290.67C464.97 327.656 448.873 373.634 448.941 421.007C448.941 437.2 450.771 452.984 453.993 466.719C458.936 488.565 469.886 514.971 481.491 533.048L487.444 542.414L439.766 590.038L432.202 586.215C425.594 582.829 423.491 582.392 415.244 582.392C397.495 582.337 402.574 578.05 304.132 676.574C206.7 774.115 212.052 767.807 212.052 785.42C211.943 801.258 213.882 804.235 244.384 834.627C269.998 860.132 274.968 864.092 284.607 866.522L284.635 866.549C291.598 868.324 303.067 867.068 310.467 863.655C316.256 861.006 327.889 849.865 403.366 774.606C501.289 676.793 497.111 681.817 497.029 664.04C497.029 655.821 496.619 653.773 493.206 647.192L489.383 639.546L537.061 591.922L546.428 597.875C582.964 621.305 630.724 633.21 673.733 629.633C703.962 627.094 726.272 620.895 752.514 607.706L753.606 607.241C773.028 597.791 790.636 584.999 805.626 569.448L805.653 569.421C838.589 537.208 859.804 494.905 865.92 449.243C867.859 435.753 867.859 405.36 865.92 392.635ZM815.457 497.112L814.993 498.15C802.851 522.577 785.207 543.853 763.448 560.305C741.69 576.757 716.41 587.935 689.598 592.96L689.626 593.014C675.317 595.609 647.081 596.155 633.155 594.025L632.199 593.916C591.236 587.623 553.826 567.026 526.603 535.779C498.807 504.075 483.508 463.334 483.567 421.171C483.567 383.132 495.773 347.933 516.144 319.78C524.582 307.847 544.434 287.994 556.613 279.338C576.781 265.089 599.666 255.143 623.843 250.119C640.391 246.597 673.952 246.242 689.844 249.437C712.755 254.024 737.113 263.964 754.562 275.706C827.909 324.886 853.496 417.921 815.457 497.112Z" fill="#272727"/>
<path d="M556.269 490.89L556.276 490.887H556.258L556.269 490.89Z" fill="#272727"/>
</g>
<mask id="mask1_11_132" style="mask-type:alpha" maskUnits="userSpaceOnUse" x="475" y="240" width="360" height="360">
<circle cx="655" cy="420" r="180" fill="#D9D9D9"/>
</mask>
<g mask="url(#mask1_11_132)">
<path d="M863 230H447V626H863V230Z" fill="white"/>
<path d="M721 231H710V627H721V231Z" fill="#D2D2D2"/>
<path d="M595 228H584V624H595V228Z" fill="#D2D2D2"/>
<path d="M625.861 240V455.643C625.861 457.791 625.341 459.81 624.559 461.567C624.429 461.763 624.299 462.023 624.234 462.219C624.169 462.284 624.103 462.414 624.038 462.479C623.973 462.609 623.908 462.74 623.778 462.87C623.778 462.935 623.713 463.001 623.713 463.066C623.648 463.131 623.583 463.261 623.517 463.326C623.322 463.587 623.126 463.847 622.931 464.107C622.866 464.237 622.736 464.368 622.606 464.498L622.541 464.563C622.411 464.693 622.28 464.823 622.215 464.954C622.085 465.084 621.955 465.215 621.759 465.345C621.303 465.735 620.913 466.061 620.457 466.387C620.327 466.517 620.196 466.582 620.001 466.713C619.871 466.778 619.741 466.843 619.61 466.908C619.285 467.103 618.895 467.298 618.504 467.428C618.374 467.493 618.178 467.558 618.048 467.624C617.723 467.754 617.397 467.884 617.006 467.95C616.941 467.95 616.876 467.95 616.811 468.015C616.681 468.015 616.55 468.015 616.42 468.08C616.225 468.08 616.03 468.145 615.9 468.145C615.835 468.145 615.835 468.145 615.77 468.145C615.64 468.145 615.444 468.21 615.314 468.21H566.612C566.417 468.21 566.222 468.145 566.092 468.145C566.027 468.145 566.027 468.145 565.962 468.145C565.832 468.145 565.636 468.08 565.506 468.08C565.441 468.08 565.441 468.08 565.441 468.08C565.311 468.015 565.181 468.015 565.05 468.015C564.985 467.95 564.92 467.95 564.855 467.95C564.529 467.885 564.138 467.754 563.813 467.624C563.682 467.559 563.487 467.494 563.357 467.428C562.967 467.298 562.641 467.103 562.251 466.908C562.121 466.843 561.99 466.778 561.86 466.713C561.73 466.583 561.534 466.517 561.405 466.387C560.949 466.126 560.558 465.735 560.167 465.345C559.972 465.215 559.842 465.085 559.712 464.954L559.321 464.563C559.321 464.563 559.321 464.498 559.256 464.498C559.126 464.368 559.061 464.238 558.93 464.107C558.734 463.847 558.539 463.587 558.344 463.326C558.279 463.261 558.214 463.131 558.149 463.066C558.149 463.001 558.084 462.936 558.084 462.87C558.019 462.74 557.889 462.61 557.824 462.479C557.759 462.414 557.693 462.285 557.693 462.219C557.563 462.023 557.433 461.763 557.367 461.567C556.521 459.809 556 457.791 556 455.643V240H625.861Z" fill="#484747"/>
<path d="M624.528 461.579C624.426 461.786 624.324 461.994 624.211 462.195C624.164 462.293 624.108 462.385 624.052 462.478C623.97 462.622 623.888 462.761 623.796 462.899C623.771 462.951 623.735 462.997 623.705 463.048C623.643 463.141 623.582 463.238 623.515 463.331C623.337 463.596 623.147 463.85 622.942 464.098C622.835 464.236 622.722 464.368 622.604 464.501C622.584 464.524 622.558 464.553 622.537 464.576C622.424 464.703 622.307 464.824 622.19 464.945C621.658 465.492 621.074 465.982 620.455 466.403C620.312 466.507 620.164 466.599 620.01 466.691C619.883 466.772 619.749 466.853 619.616 466.922C619.263 467.124 618.905 467.297 618.532 467.447C618.368 467.516 618.204 467.579 618.035 467.643C617.708 467.758 617.37 467.856 617.033 467.937C616.956 467.959 616.875 467.977 616.797 467.989C616.675 468.017 616.552 468.041 616.424 468.063C616.413 468.069 616.403 468.069 616.393 468.069C616.229 468.098 616.06 468.121 615.892 468.144C615.856 468.15 615.82 468.15 615.784 468.155C615.62 468.172 615.452 468.184 615.283 468.196C615.099 468.207 614.905 468.213 614.715 468.213H567.158C566.968 468.213 566.774 468.207 566.59 468.196C566.421 468.185 566.252 468.173 566.088 468.155C566.053 468.15 566.017 468.15 565.981 468.144C565.812 468.121 565.643 468.098 565.48 468.069C565.469 468.069 565.46 468.069 565.449 468.063C565.321 468.041 565.198 468.017 565.075 467.989C564.999 467.977 564.917 467.959 564.84 467.937C564.502 467.856 564.165 467.758 563.837 467.643C563.669 467.579 563.505 467.516 563.341 467.447C562.967 467.297 562.609 467.124 562.257 466.922C562.123 466.853 561.991 466.773 561.863 466.691C561.709 466.599 561.56 466.507 561.418 466.403C560.799 465.982 560.215 465.492 559.683 464.945C559.565 464.824 559.448 464.703 559.335 464.576C559.315 464.553 559.289 464.524 559.274 464.501C559.151 464.369 559.038 464.237 558.931 464.098C558.726 463.85 558.537 463.596 558.358 463.331C558.292 463.239 558.23 463.141 558.169 463.048C558.138 462.996 558.102 462.95 558.077 462.899C557.985 462.761 557.903 462.622 557.821 462.478C557.765 462.386 557.708 462.293 557.663 462.195C557.551 461.994 557.448 461.786 557.345 461.579L566.175 417.264C566.175 410.364 571.184 404.717 577.313 404.717H604.561C610.69 404.717 615.698 410.365 615.698 417.264L624.528 461.579Z" fill="#595A59"/>
<path d="M570.86 241.724H569.496V401.434H570.86V241.724Z" fill="#595A59"/>
<path d="M611.788 241.724H610.424V401.434H611.788V241.724Z" fill="#595A59"/>
<path d="M749.861 240V455.643C749.861 457.791 749.341 459.81 748.559 461.567C748.429 461.763 748.299 462.023 748.234 462.219C748.169 462.284 748.103 462.414 748.038 462.479C747.973 462.609 747.908 462.74 747.778 462.87C747.778 462.935 747.713 463.001 747.713 463.066C747.648 463.131 747.583 463.261 747.517 463.326C747.322 463.587 747.126 463.847 746.931 464.107C746.866 464.237 746.736 464.368 746.606 464.498L746.541 464.563C746.411 464.693 746.28 464.823 746.215 464.954C746.085 465.084 745.955 465.215 745.759 465.345C745.303 465.735 744.913 466.061 744.457 466.387C744.327 466.517 744.196 466.582 744.001 466.713C743.871 466.778 743.741 466.843 743.61 466.908C743.285 467.103 742.895 467.298 742.504 467.428C742.374 467.493 742.178 467.558 742.048 467.624C741.723 467.754 741.397 467.884 741.006 467.95C740.941 467.95 740.876 467.95 740.811 468.015C740.681 468.015 740.55 468.015 740.42 468.08C740.225 468.08 740.03 468.145 739.9 468.145C739.835 468.145 739.835 468.145 739.77 468.145C739.64 468.145 739.444 468.21 739.314 468.21H690.612C690.417 468.21 690.222 468.145 690.092 468.145C690.027 468.145 690.027 468.145 689.962 468.145C689.832 468.145 689.636 468.08 689.506 468.08C689.441 468.08 689.441 468.08 689.441 468.08C689.311 468.015 689.181 468.015 689.05 468.015C688.985 467.95 688.92 467.95 688.855 467.95C688.529 467.885 688.138 467.754 687.813 467.624C687.682 467.559 687.487 467.494 687.357 467.428C686.967 467.298 686.641 467.103 686.251 466.908C686.121 466.843 685.99 466.778 685.86 466.713C685.73 466.583 685.534 466.517 685.405 466.387C684.949 466.126 684.558 465.735 684.167 465.345C683.972 465.215 683.842 465.085 683.712 464.954L683.321 464.563C683.321 464.563 683.321 464.498 683.256 464.498C683.126 464.368 683.061 464.238 682.93 464.107C682.734 463.847 682.539 463.587 682.344 463.326C682.279 463.261 682.214 463.131 682.149 463.066C682.149 463.001 682.084 462.936 682.084 462.87C682.019 462.74 681.889 462.61 681.824 462.479C681.759 462.414 681.693 462.285 681.693 462.219C681.563 462.023 681.433 461.763 681.367 461.567C680.521 459.809 680 457.791 680 455.643V240H749.861Z" fill="#484747"/>
<path d="M748.528 461.579C748.426 461.786 748.324 461.994 748.211 462.195C748.164 462.293 748.108 462.385 748.052 462.478C747.97 462.622 747.888 462.761 747.796 462.899C747.771 462.951 747.735 462.997 747.705 463.048C747.643 463.141 747.582 463.238 747.515 463.331C747.337 463.596 747.147 463.85 746.942 464.098C746.835 464.236 746.722 464.368 746.604 464.501C746.584 464.524 746.558 464.553 746.537 464.576C746.424 464.703 746.307 464.824 746.19 464.945C745.658 465.492 745.074 465.982 744.455 466.403C744.312 466.507 744.164 466.599 744.01 466.691C743.883 466.772 743.749 466.853 743.616 466.922C743.263 467.124 742.905 467.297 742.532 467.447C742.368 467.516 742.204 467.579 742.035 467.643C741.708 467.758 741.37 467.856 741.033 467.937C740.956 467.959 740.875 467.977 740.797 467.989C740.675 468.017 740.552 468.041 740.424 468.063C740.413 468.069 740.403 468.069 740.393 468.069C740.229 468.098 740.06 468.121 739.892 468.144C739.856 468.15 739.82 468.15 739.784 468.155C739.62 468.172 739.452 468.184 739.283 468.196C739.099 468.207 738.905 468.213 738.715 468.213H691.158C690.968 468.213 690.774 468.207 690.59 468.196C690.421 468.185 690.252 468.173 690.088 468.155C690.053 468.15 690.017 468.15 689.981 468.144C689.812 468.121 689.643 468.098 689.48 468.069C689.469 468.069 689.46 468.069 689.449 468.063C689.321 468.041 689.198 468.017 689.075 467.989C688.999 467.977 688.917 467.959 688.84 467.937C688.502 467.856 688.165 467.758 687.837 467.643C687.669 467.579 687.505 467.516 687.341 467.447C686.967 467.297 686.609 467.124 686.257 466.922C686.123 466.853 685.991 466.773 685.863 466.691C685.709 466.599 685.56 466.507 685.418 466.403C684.799 465.982 684.215 465.492 683.683 464.945C683.565 464.824 683.448 464.703 683.335 464.576C683.315 464.553 683.289 464.524 683.274 464.501C683.151 464.369 683.038 464.237 682.931 464.098C682.726 463.85 682.537 463.596 682.358 463.331C682.292 463.239 682.23 463.141 682.169 463.048C682.138 462.996 682.102 462.95 682.077 462.899C681.985 462.761 681.903 462.622 681.821 462.478C681.765 462.386 681.708 462.293 681.663 462.195C681.551 461.994 681.448 461.786 681.345 461.579L690.175 417.264C690.175 410.364 695.184 404.717 701.313 404.717H728.561C734.69 404.717 739.698 410.365 739.698 417.264L748.528 461.579Z" fill="#595A59"/>
<path d="M694.86 241.724H693.496V401.434H694.86V241.724Z" fill="#595A59"/>
<path d="M735.788 241.724H734.424V401.434H735.788V241.724Z" fill="#595A59"/>
</g>
<path d="M1314.09 540.636C1314.09 566.015 1309.28 587.606 1299.66 605.409C1290.11 623.212 1277.08 636.811 1260.57 646.205C1244.13 655.523 1225.64 660.182 1205.11 660.182C1184.43 660.182 1165.87 655.485 1149.43 646.091C1132.99 636.697 1120 623.098 1110.45 605.295C1100.91 587.492 1096.14 565.939 1096.14 540.636C1096.14 515.258 1100.91 493.667 1110.45 475.864C1120 458.061 1132.99 444.5 1149.43 435.182C1165.87 425.788 1184.43 421.091 1205.11 421.091C1225.64 421.091 1244.13 425.788 1260.57 435.182C1277.08 444.5 1290.11 458.061 1299.66 475.864C1309.28 493.667 1314.09 515.258 1314.09 540.636ZM1264.2 540.636C1264.2 524.197 1261.74 510.333 1256.82 499.045C1251.97 487.758 1245.11 479.197 1236.25 473.364C1227.39 467.53 1217.01 464.614 1205.11 464.614C1193.22 464.614 1182.84 467.53 1173.98 473.364C1165.11 479.197 1158.22 487.758 1153.3 499.045C1148.45 510.333 1146.02 524.197 1146.02 540.636C1146.02 557.076 1148.45 570.939 1153.3 582.227C1158.22 593.515 1165.11 602.076 1173.98 607.909C1182.84 613.742 1193.22 616.659 1205.11 616.659C1217.01 616.659 1227.39 613.742 1236.25 607.909C1245.11 602.076 1251.97 593.515 1256.82 582.227C1261.74 570.939 1264.2 557.076 1264.2 540.636ZM1352.83 722.455V482.455H1400.56V511.773H1402.72C1404.84 507.076 1407.91 502.303 1411.92 497.455C1416.01 492.53 1421.32 488.439 1427.83 485.182C1434.42 481.848 1442.6 480.182 1452.38 480.182C1465.1 480.182 1476.85 483.515 1487.6 490.182C1498.36 496.773 1506.96 506.735 1513.4 520.068C1519.84 533.326 1523.06 549.955 1523.06 569.955C1523.06 589.424 1519.91 605.864 1513.63 619.273C1507.41 632.606 1498.93 642.72 1488.17 649.614C1477.49 656.432 1465.52 659.841 1452.26 659.841C1442.87 659.841 1434.88 658.288 1428.29 655.182C1421.77 652.076 1416.43 648.174 1412.26 643.477C1408.1 638.705 1404.91 633.894 1402.72 629.045H1401.24V722.455H1352.83ZM1400.22 569.727C1400.22 580.106 1401.66 589.159 1404.54 596.886C1407.41 604.614 1411.58 610.636 1417.04 614.955C1422.49 619.197 1429.12 621.318 1436.92 621.318C1444.8 621.318 1451.47 619.159 1456.92 614.841C1462.38 610.447 1466.5 604.386 1469.31 596.659C1472.19 588.856 1473.63 579.879 1473.63 569.727C1473.63 559.652 1472.22 550.788 1469.42 543.136C1466.62 535.485 1462.49 529.5 1457.04 525.182C1451.58 520.864 1444.88 518.705 1436.92 518.705C1429.04 518.705 1422.38 520.788 1416.92 524.955C1411.54 529.121 1407.41 535.03 1404.54 542.682C1401.66 550.333 1400.22 559.348 1400.22 569.727ZM1638.08 660.409C1620.12 660.409 1604.67 656.773 1591.71 649.5C1578.83 642.152 1568.91 631.773 1561.94 618.364C1554.97 604.879 1551.49 588.932 1551.49 570.523C1551.49 552.568 1554.97 536.811 1561.94 523.25C1568.91 509.689 1578.72 499.121 1591.37 491.545C1604.1 483.97 1619.02 480.182 1636.14 480.182C1647.66 480.182 1658.38 482.038 1668.3 485.75C1678.3 489.386 1687.02 494.879 1694.44 502.227C1701.94 509.576 1707.77 518.818 1711.94 529.955C1716.11 541.015 1718.19 553.97 1718.19 568.818V582.114H1570.8V552.114H1672.62C1672.62 545.144 1671.11 538.97 1668.08 533.591C1665.05 528.212 1660.84 524.008 1655.46 520.977C1650.16 517.871 1643.99 516.318 1636.94 516.318C1629.59 516.318 1623.08 518.023 1617.39 521.432C1611.79 524.765 1607.39 529.273 1604.21 534.955C1601.03 540.561 1599.4 546.811 1599.33 553.705V582.227C1599.33 590.864 1600.92 598.326 1604.1 604.614C1607.36 610.902 1611.94 615.75 1617.85 619.159C1623.76 622.568 1630.77 624.273 1638.87 624.273C1644.25 624.273 1649.17 623.515 1653.64 622C1658.11 620.485 1661.94 618.212 1665.12 615.182C1668.3 612.152 1670.73 608.439 1672.39 604.045L1717.17 607C1714.89 617.758 1710.24 627.152 1703.19 635.182C1696.22 643.136 1687.2 649.348 1676.14 653.818C1665.16 658.212 1652.47 660.409 1638.08 660.409ZM1801.39 556.091V657H1752.98V482.455H1799.12V513.25H1801.16C1805.03 503.098 1811.5 495.068 1820.59 489.159C1829.69 483.174 1840.71 480.182 1853.66 480.182C1865.78 480.182 1876.35 482.833 1885.37 488.136C1894.38 493.439 1901.39 501.015 1906.39 510.864C1911.39 520.636 1913.89 532.303 1913.89 545.864V657H1865.48V554.5C1865.56 543.818 1862.83 535.485 1857.3 529.5C1851.77 523.439 1844.15 520.409 1834.46 520.409C1827.94 520.409 1822.19 521.811 1817.19 524.614C1812.26 527.417 1808.4 531.508 1805.59 536.886C1802.87 542.189 1801.47 548.591 1801.39 556.091ZM2082.4 491.205C2081.49 482.038 2077.59 474.917 2070.7 469.841C2063.8 464.765 2054.45 462.227 2042.63 462.227C2034.6 462.227 2027.82 463.364 2022.29 465.636C2016.76 467.833 2012.52 470.902 2009.56 474.841C2006.68 478.78 2005.24 483.25 2005.24 488.25C2005.09 492.417 2005.96 496.053 2007.86 499.159C2009.83 502.265 2012.52 504.955 2015.92 507.227C2019.33 509.424 2023.27 511.356 2027.74 513.023C2032.21 514.614 2036.99 515.977 2042.06 517.114L2062.97 522.114C2073.12 524.386 2082.44 527.417 2090.92 531.205C2099.41 534.992 2106.76 539.652 2112.97 545.182C2119.18 550.712 2123.99 557.227 2127.4 564.727C2130.89 572.227 2132.67 580.826 2132.74 590.523C2132.67 604.765 2129.03 617.114 2121.83 627.568C2114.71 637.947 2104.41 646.015 2090.92 651.773C2077.52 657.455 2061.34 660.295 2042.4 660.295C2023.61 660.295 2007.25 657.417 1993.31 651.659C1979.45 645.902 1968.61 637.379 1960.81 626.091C1953.08 614.727 1949.03 600.674 1948.65 583.932H1996.27C1996.8 591.735 1999.03 598.25 2002.97 603.477C2006.99 608.629 2012.33 612.53 2018.99 615.182C2025.74 617.758 2033.35 619.045 2041.83 619.045C2050.17 619.045 2057.4 617.833 2063.54 615.409C2069.75 612.985 2074.56 609.614 2077.97 605.295C2081.38 600.977 2083.08 596.015 2083.08 590.409C2083.08 585.182 2081.53 580.788 2078.42 577.227C2075.39 573.667 2070.92 570.636 2065.02 568.136C2059.18 565.636 2052.02 563.364 2043.54 561.318L2018.2 554.955C1998.58 550.182 1983.08 542.72 1971.72 532.568C1960.36 522.417 1954.71 508.742 1954.79 491.545C1954.71 477.455 1958.46 465.144 1966.04 454.614C1973.69 444.083 1984.18 435.864 1997.52 429.955C2010.85 424.045 2026 421.091 2042.97 421.091C2060.24 421.091 2075.32 424.045 2088.2 429.955C2101.15 435.864 2111.23 444.083 2118.42 454.614C2125.62 465.144 2129.33 477.341 2129.56 491.205H2082.4ZM2260.97 482.455V518.818H2155.86V482.455H2260.97ZM2179.72 440.636H2228.13V603.364C2228.13 607.833 2228.81 611.318 2230.18 613.818C2231.54 616.242 2233.43 617.947 2235.86 618.932C2238.36 619.917 2241.24 620.409 2244.49 620.409C2246.77 620.409 2249.04 620.22 2251.31 619.841C2253.59 619.386 2255.33 619.045 2256.54 618.818L2264.15 654.841C2261.73 655.598 2258.32 656.47 2253.93 657.455C2249.53 658.515 2244.19 659.159 2237.9 659.386C2226.24 659.841 2216.01 658.288 2207.22 654.727C2198.51 651.167 2191.73 645.636 2186.88 638.136C2182.03 630.636 2179.65 621.167 2179.72 609.727V440.636ZM2295.71 657V482.455H2342.64V512.909H2344.46C2347.64 502.076 2352.98 493.894 2360.48 488.364C2367.98 482.758 2376.61 479.955 2386.39 479.955C2388.81 479.955 2391.43 480.106 2394.23 480.409C2397.03 480.712 2399.49 481.129 2401.61 481.659V524.614C2399.34 523.932 2396.2 523.326 2392.18 522.795C2388.17 522.265 2384.49 522 2381.16 522C2374.04 522 2367.68 523.553 2362.07 526.659C2356.54 529.689 2352.15 533.932 2348.89 539.386C2345.71 544.841 2344.11 551.129 2344.11 558.25V657H2295.71ZM2501.26 660.409C2483.31 660.409 2467.85 656.773 2454.9 649.5C2442.02 642.152 2432.1 631.773 2425.13 618.364C2418.16 604.879 2414.67 588.932 2414.67 570.523C2414.67 552.568 2418.16 536.811 2425.13 523.25C2432.1 509.689 2441.91 499.121 2454.56 491.545C2467.29 483.97 2482.21 480.182 2499.33 480.182C2510.85 480.182 2521.57 482.038 2531.49 485.75C2541.49 489.386 2550.2 494.879 2557.63 502.227C2565.13 509.576 2570.96 518.818 2575.13 529.955C2579.29 541.015 2581.38 553.97 2581.38 568.818V582.114H2433.99V552.114H2535.81C2535.81 545.144 2534.29 538.97 2531.26 533.591C2528.23 528.212 2524.03 524.008 2518.65 520.977C2513.35 517.871 2507.17 516.318 2500.13 516.318C2492.78 516.318 2486.26 518.023 2480.58 521.432C2474.98 524.765 2470.58 529.273 2467.4 534.955C2464.22 540.561 2462.59 546.811 2462.51 553.705V582.227C2462.51 590.864 2464.1 598.326 2467.29 604.614C2470.54 610.902 2475.13 615.75 2481.04 619.159C2486.95 622.568 2493.95 624.273 2502.06 624.273C2507.44 624.273 2512.36 623.515 2516.83 622C2521.3 620.485 2525.13 618.212 2528.31 615.182C2531.49 612.152 2533.92 608.439 2535.58 604.045L2580.35 607C2578.08 617.758 2573.42 627.152 2566.38 635.182C2559.41 643.136 2550.39 649.348 2539.33 653.818C2528.35 658.212 2515.66 660.409 2501.26 660.409ZM2695.71 660.409C2677.76 660.409 2662.3 656.773 2649.35 649.5C2636.47 642.152 2626.55 631.773 2619.58 618.364C2612.61 604.879 2609.12 588.932 2609.12 570.523C2609.12 552.568 2612.61 536.811 2619.58 523.25C2626.55 509.689 2636.36 499.121 2649.01 491.545C2661.74 483.97 2676.66 480.182 2693.78 480.182C2705.3 480.182 2716.02 482.038 2725.94 485.75C2735.94 489.386 2744.65 494.879 2752.08 502.227C2759.58 509.576 2765.41 518.818 2769.58 529.955C2773.74 541.015 2775.83 553.97 2775.83 568.818V582.114H2628.44V552.114H2730.26C2730.26 545.144 2728.74 538.97 2725.71 533.591C2722.68 528.212 2718.48 524.008 2713.1 520.977C2707.8 517.871 2701.62 516.318 2694.58 516.318C2687.23 516.318 2680.71 518.023 2675.03 521.432C2669.43 524.765 2665.03 529.273 2661.85 534.955C2658.67 540.561 2657.04 546.811 2656.96 553.705V582.227C2656.96 590.864 2658.55 598.326 2661.74 604.614C2664.99 610.902 2669.58 615.75 2675.49 619.159C2681.4 622.568 2688.4 624.273 2696.51 624.273C2701.89 624.273 2706.81 623.515 2711.28 622C2715.75 620.485 2719.58 618.212 2722.76 615.182C2725.94 612.152 2728.37 608.439 2730.03 604.045L2774.8 607C2772.53 617.758 2767.87 627.152 2760.83 635.182C2753.86 643.136 2744.84 649.348 2733.78 653.818C2722.8 658.212 2710.11 660.409 2695.71 660.409ZM2903.46 482.455V518.818H2798.35V482.455H2903.46ZM2822.21 440.636H2870.62V603.364C2870.62 607.833 2871.3 611.318 2872.66 613.818C2874.03 616.242 2875.92 617.947 2878.35 618.932C2880.85 619.917 2883.72 620.409 2886.98 620.409C2889.25 620.409 2891.53 620.22 2893.8 619.841C2896.07 619.386 2897.82 619.045 2899.03 618.818L2906.64 654.841C2904.22 655.598 2900.81 656.47 2896.41 657.455C2892.02 658.515 2886.68 659.159 2880.39 659.386C2868.72 659.841 2858.5 658.288 2849.71 654.727C2841 651.167 2834.22 645.636 2829.37 638.136C2824.52 630.636 2822.13 621.167 2822.21 609.727V440.636ZM2942.85 424.273H3003.53L3067.62 580.636H3070.35L3134.44 424.273H3195.12V657H3147.4V505.523H3145.47L3085.24 655.864H3052.74L2992.51 504.955H2990.58V657H2942.85V424.273ZM3287.73 660.295C3276.59 660.295 3266.67 658.364 3257.96 654.5C3249.24 650.561 3242.35 644.765 3237.27 637.114C3232.27 629.386 3229.77 619.765 3229.77 608.25C3229.77 598.553 3231.55 590.409 3235.11 583.818C3238.68 577.227 3243.52 571.924 3249.66 567.909C3255.8 563.894 3262.77 560.864 3270.57 558.818C3278.45 556.773 3286.71 555.333 3295.34 554.5C3305.49 553.439 3313.68 552.455 3319.89 551.545C3326.1 550.561 3330.61 549.121 3333.41 547.227C3336.21 545.333 3337.61 542.53 3337.61 538.818V538.136C3337.61 530.939 3335.34 525.371 3330.8 521.432C3326.33 517.492 3319.96 515.523 3311.71 515.523C3302.99 515.523 3296.06 517.455 3290.91 521.318C3285.76 525.106 3282.35 529.879 3280.68 535.636L3235.91 532C3238.18 521.394 3242.65 512.227 3249.32 504.5C3255.99 496.697 3264.58 490.712 3275.11 486.545C3285.72 482.303 3297.99 480.182 3311.93 480.182C3321.63 480.182 3330.91 481.318 3339.77 483.591C3348.71 485.864 3356.63 489.386 3363.52 494.159C3370.49 498.932 3375.99 505.068 3380 512.568C3384.02 519.992 3386.02 528.894 3386.02 539.273V657H3340.11V632.795H3338.75C3335.95 638.25 3332.2 643.061 3327.5 647.227C3322.8 651.318 3317.16 654.538 3310.57 656.886C3303.98 659.159 3296.36 660.295 3287.73 660.295ZM3301.59 626.886C3308.71 626.886 3315 625.485 3320.46 622.682C3325.91 619.803 3330.19 615.939 3333.3 611.091C3336.4 606.242 3337.96 600.75 3337.96 594.614V576.091C3336.44 577.076 3334.36 577.985 3331.71 578.818C3329.13 579.576 3326.21 580.295 3322.96 580.977C3319.7 581.583 3316.44 582.152 3313.18 582.682C3309.93 583.136 3306.97 583.553 3304.32 583.932C3298.64 584.765 3293.68 586.091 3289.43 587.909C3285.19 589.727 3281.9 592.189 3279.55 595.295C3277.2 598.326 3276.02 602.114 3276.02 606.659C3276.02 613.25 3278.41 618.288 3283.18 621.773C3288.03 625.182 3294.17 626.886 3301.59 626.886ZM3426.78 722.455V482.455H3474.51V511.773H3476.67C3478.79 507.076 3481.86 502.303 3485.87 497.455C3489.96 492.53 3495.27 488.439 3501.78 485.182C3508.37 481.848 3516.55 480.182 3526.33 480.182C3539.05 480.182 3550.8 483.515 3561.55 490.182C3572.31 496.773 3580.91 506.735 3587.35 520.068C3593.79 533.326 3597.01 549.955 3597.01 569.955C3597.01 589.424 3593.86 605.864 3587.58 619.273C3581.36 632.606 3572.88 642.72 3562.12 649.614C3551.44 656.432 3539.47 659.841 3526.21 659.841C3516.82 659.841 3508.83 658.288 3502.24 655.182C3495.72 652.076 3490.38 648.174 3486.21 643.477C3482.05 638.705 3478.86 633.894 3476.67 629.045H3475.19V722.455H3426.78ZM3474.17 569.727C3474.17 580.106 3475.61 589.159 3478.49 596.886C3481.36 604.614 3485.53 610.636 3490.99 614.955C3496.44 619.197 3503.07 621.318 3510.87 621.318C3518.75 621.318 3525.42 619.159 3530.87 614.841C3536.33 610.447 3540.45 604.386 3543.26 596.659C3546.14 588.856 3547.58 579.879 3547.58 569.727C3547.58 559.652 3546.17 550.788 3543.37 543.136C3540.57 535.485 3536.44 529.5 3530.99 525.182C3525.53 520.864 3518.83 518.705 3510.87 518.705C3502.99 518.705 3496.33 520.788 3490.87 524.955C3485.49 529.121 3481.36 535.03 3478.49 542.682C3475.61 550.333 3474.17 559.348 3474.17 569.727ZM3710.65 657V424.273H3802.47C3820.12 424.273 3835.16 427.644 3847.58 434.386C3860.01 441.053 3869.48 450.333 3875.99 462.227C3882.58 474.045 3885.88 487.682 3885.88 503.136C3885.88 518.591 3882.55 532.227 3875.88 544.045C3869.21 555.864 3859.55 565.068 3846.9 571.659C3834.33 578.25 3819.1 581.545 3801.22 581.545H3742.7V542.114H3793.27C3802.74 542.114 3810.54 540.485 3816.68 537.227C3822.89 533.894 3827.51 529.311 3830.54 523.477C3833.64 517.568 3835.2 510.788 3835.2 503.136C3835.2 495.409 3833.64 488.667 3830.54 482.909C3827.51 477.076 3822.89 472.568 3816.68 469.386C3810.46 466.129 3802.58 464.5 3793.04 464.5H3759.86V657H3710.65ZM3920.13 657V482.455H3968.54V657H3920.13ZM3944.45 459.955C3937.25 459.955 3931.08 457.568 3925.93 452.795C3920.85 447.947 3918.31 442.152 3918.31 435.409C3918.31 428.742 3920.85 423.023 3925.93 418.25C3931.08 413.402 3937.25 410.977 3944.45 410.977C3951.65 410.977 3957.78 413.402 3962.86 418.25C3968.01 423.023 3970.59 428.742 3970.59 435.409C3970.59 442.152 3968.01 447.947 3962.86 452.795C3957.78 457.568 3951.65 459.955 3944.45 459.955ZM4060.29 660.295C4049.15 660.295 4039.23 658.364 4030.52 654.5C4021.81 650.561 4014.91 644.765 4009.84 637.114C4004.84 629.386 4002.34 619.765 4002.34 608.25C4002.34 598.553 4004.12 590.409 4007.68 583.818C4011.24 577.227 4016.09 571.924 4022.22 567.909C4028.36 563.894 4035.33 560.864 4043.13 558.818C4051.01 556.773 4059.27 555.333 4067.9 554.5C4078.06 553.439 4086.24 552.455 4092.45 551.545C4098.66 550.561 4103.17 549.121 4105.97 547.227C4108.78 545.333 4110.18 542.53 4110.18 538.818V538.136C4110.18 530.939 4107.9 525.371 4103.36 521.432C4098.89 517.492 4092.53 515.523 4084.27 515.523C4075.56 515.523 4068.62 517.455 4063.47 521.318C4058.32 525.106 4054.91 529.879 4053.25 535.636L4008.47 532C4010.75 521.394 4015.22 512.227 4021.88 504.5C4028.55 496.697 4037.15 490.712 4047.68 486.545C4058.28 482.303 4070.56 480.182 4084.5 480.182C4094.19 480.182 4103.47 481.318 4112.34 483.591C4121.28 485.864 4129.19 489.386 4136.09 494.159C4143.06 498.932 4148.55 505.068 4152.56 512.568C4156.58 519.992 4158.59 528.894 4158.59 539.273V657H4112.68V632.795H4111.31C4108.51 638.25 4104.76 643.061 4100.06 647.227C4095.37 651.318 4089.72 654.538 4083.13 656.886C4076.54 659.159 4068.93 660.295 4060.29 660.295ZM4074.15 626.886C4081.28 626.886 4087.56 625.485 4093.02 622.682C4098.47 619.803 4102.75 615.939 4105.86 611.091C4108.97 606.242 4110.52 600.75 4110.52 594.614V576.091C4109 577.076 4106.92 577.985 4104.27 578.818C4101.69 579.576 4098.78 580.295 4095.52 580.977C4092.26 581.583 4089 582.152 4085.75 582.682C4082.49 583.136 4079.53 583.553 4076.88 583.932C4071.2 584.765 4066.24 586.091 4062 587.909C4057.75 589.727 4054.46 592.189 4052.11 595.295C4049.76 598.326 4048.59 602.114 4048.59 606.659C4048.59 613.25 4050.97 618.288 4055.75 621.773C4060.59 625.182 4066.73 626.886 4074.15 626.886ZM4247.75 556.091V657H4199.34V482.455H4245.48V513.25H4247.52C4251.39 503.098 4257.87 495.068 4266.96 489.159C4276.05 483.174 4287.07 480.182 4300.02 480.182C4312.15 480.182 4322.71 482.833 4331.73 488.136C4340.74 493.439 4347.75 501.015 4352.75 510.864C4357.75 520.636 4360.25 532.303 4360.25 545.864V657H4311.84V554.5C4311.92 543.818 4309.19 535.485 4303.66 529.5C4298.13 523.439 4290.52 520.409 4280.82 520.409C4274.31 520.409 4268.55 521.811 4263.55 524.614C4258.62 527.417 4254.76 531.508 4251.96 536.886C4249.23 542.189 4247.83 548.591 4247.75 556.091ZM4480.47 660.409C4462.82 660.409 4447.55 656.659 4434.67 649.159C4421.87 641.583 4411.98 631.053 4405.01 617.568C4398.05 604.008 4394.56 588.288 4394.56 570.409C4394.56 552.379 4398.05 536.621 4405.01 523.136C4411.98 509.576 4421.87 499.045 4434.67 491.545C4447.55 483.97 4462.82 480.182 4480.47 480.182C4498.12 480.182 4513.35 483.97 4526.15 491.545C4539.03 499.045 4548.95 509.576 4555.92 523.136C4562.89 536.621 4566.38 552.379 4566.38 570.409C4566.38 588.288 4562.89 604.008 4555.92 617.568C4548.95 631.053 4539.03 641.583 4526.15 649.159C4513.35 656.659 4498.12 660.409 4480.47 660.409ZM4480.7 622.909C4488.73 622.909 4495.43 620.636 4500.81 616.091C4506.19 611.47 4510.24 605.182 4512.97 597.227C4515.77 589.273 4517.17 580.22 4517.17 570.068C4517.17 559.917 4515.77 550.864 4512.97 542.909C4510.24 534.955 4506.19 528.667 4500.81 524.045C4495.43 519.424 4488.73 517.114 4480.7 517.114C4472.59 517.114 4465.77 519.424 4460.24 524.045C4454.79 528.667 4450.66 534.955 4447.86 542.909C4445.13 550.864 4443.76 559.917 4443.76 570.068C4443.76 580.22 4445.13 589.273 4447.86 597.227C4450.66 605.182 4454.79 611.47 4460.24 616.091C4465.77 620.636 4472.59 622.909 4480.7 622.909ZM4746.28 532.227L4701.96 534.955C4701.21 531.167 4699.58 527.758 4697.08 524.727C4694.58 521.621 4691.28 519.159 4687.19 517.341C4683.18 515.447 4678.37 514.5 4672.76 514.5C4665.26 514.5 4658.93 516.091 4653.78 519.273C4648.63 522.379 4646.06 526.545 4646.06 531.773C4646.06 535.939 4647.72 539.462 4651.06 542.341C4654.39 545.22 4660.11 547.53 4668.21 549.273L4699.81 555.636C4716.78 559.121 4729.43 564.727 4737.76 572.455C4746.09 580.182 4750.26 590.333 4750.26 602.909C4750.26 614.348 4746.89 624.386 4740.15 633.023C4733.48 641.659 4724.31 648.402 4712.65 653.25C4701.06 658.023 4687.68 660.409 4672.53 660.409C4649.43 660.409 4631.02 655.598 4617.31 645.977C4603.67 636.28 4595.68 623.098 4593.33 606.432L4640.94 603.932C4642.38 610.977 4645.87 616.356 4651.4 620.068C4656.93 623.705 4664.01 625.523 4672.65 625.523C4681.13 625.523 4687.95 623.894 4693.1 620.636C4698.33 617.303 4700.98 613.023 4701.06 607.795C4700.98 603.402 4699.12 599.803 4695.49 597C4691.85 594.121 4686.25 591.924 4678.67 590.409L4648.44 584.386C4631.4 580.977 4618.71 575.068 4610.37 566.659C4602.12 558.25 4597.99 547.53 4597.99 534.5C4597.99 523.288 4601.02 513.629 4607.08 505.523C4613.21 497.417 4621.81 491.167 4632.87 486.773C4644.01 482.379 4657.04 480.182 4671.96 480.182C4694.01 480.182 4711.36 484.841 4724.01 494.159C4736.74 503.477 4744.16 516.167 4746.28 532.227Z" fill="white"/>
</svg>
